<?xml version="1.0" encoding="utf-8"?>
<!-- Generator: Adobe Illustrator 27.2.0, SVG Export Plug-In . SVG Version: 6.00 Build 0)  -->
<svg version="1.1" id="Capa_1" xmlns="http://www.w3.org/2000/svg" xmlns:xlink="http://www.w3.org/1999/xlink" x="0px" y="0px"
	 viewBox="0 0 100 100" style="enable-background:new 0 0 100 100;" xml:space="preserve">
<style type="text/css">
	.st0{fill:none;stroke:#000000;stroke-miterlimit:10;}
	.st1{fill:#FF0000;}
	.st2{font-family:'MyriadPro-Regular';}
	.st3{font-size:4.5px;}
	.st4{fill:#39B54A;}
	.st5{fill:#FF00FF;}
	.st6{fill:#0000FF;}
	.st7{fill:#93278F;}
	.st8{fill:#F7931E;}
</style>
<path class="st0" d="M74.44,44.27c-4.51-11.42-9.01-22.83-9.93-25.15c0,0-50.72,50.72-50.72,50.72s-0.05,0.05-0.12,0.12
	c4.08,0,64.29,0,70.92,0C84.59,69.96,79.51,57.1,74.44,44.27z"/>
<text transform="matrix(1 0 0 1 8.8219 71.9924)" class="st1 st2 st3">α</text>
<text transform="matrix(1 0 0 1 86.3633 70.7599)" class="st4 st2 st3">β</text>
<text transform="matrix(1 0 0 1 64.1915 16.982)" class="st5 st2 st3">φ</text>
<text transform="matrix(1 0 0 1 37.6631 40.8207)" class="st6 st2 st3">c</text>
<text transform="matrix(1 0 0 1 76.8416 46.9844)" class="st7 st2 st3">a</text>
<text transform="matrix(1 0 0 1 49.5835 74.781)" class="st8 st2 st3">b</text>
</svg>
